<svg xmlns="http://www.w3.org/2000/svg" xmlns:xlink="http://www.w3.org/1999/xlink" width="500" zoomAndPan="magnify" viewBox="0 0 375 115.499997" height="154" preserveAspectRatio="xMidYMid meet" version="1.0"><defs><g/><clipPath id="943b861f7f"><path d="M 6.558594 1.722656 L 120.066406 1.722656 L 120.066406 115.003906 L 6.558594 115.003906 Z M 6.558594 1.722656 " clip-rule="nonzero"/></clipPath></defs><g clip-path="url(#943b861f7f)"><path fill="#000000" d="M 118.378906 1.660156 L 8.113281 1.660156 C 7.21875 1.660156 6.492188 2.382812 6.492188 3.28125 L 6.492188 113.546875 C 6.492188 114.441406 7.21875 115.167969 8.113281 115.167969 L 118.378906 115.167969 C 119.277344 115.167969 120.003906 114.441406 120.003906 113.546875 L 120.003906 3.28125 C 120.003906 2.382812 119.277344 1.660156 118.378906 1.660156 Z M 116.757812 111.921875 L 9.738281 111.921875 L 9.738281 4.902344 L 116.757812 4.902344 Z M 116.757812 111.921875 " fill-opacity="1" fill-rule="nonzero"/></g><g fill="#000000" fill-opacity="1"><g transform="translate(20.75929, 86.212804)"><g><path d="M 19.375 0.890625 C 29.234375 0.890625 34.546875 -4.34375 34.546875 -14.359375 L 34.546875 -53.25 L 27.59375 -53.25 L 27.59375 -14.578125 C 27.59375 -8.453125 24.90625 -5.3125 19.4375 -5.3125 C 13.53125 -5.3125 10.6875 -8.453125 10.6875 -14.578125 L 10.6875 -18.171875 L 3.734375 -18.171875 L 3.734375 -14.203125 C 3.734375 -4.71875 9.5 0.890625 19.375 0.890625 Z M 19.375 0.890625 "/></g></g></g><g fill="#000000" fill-opacity="1"><g transform="translate(55.678914, 86.212804)"><g><path d="M 25.578125 1.125 C 40.3125 1.125 46.140625 -6.203125 46.140625 -14.65625 C 46.140625 -22.953125 40.75 -27.671875 30.890625 -29.765625 L 21.53125 -31.78125 C 14.875 -33.203125 12.265625 -35.59375 12.265625 -39.78125 C 12.265625 -45.390625 16.75 -48.609375 24.375 -48.609375 C 32.53125 -48.609375 37.234375 -45.015625 37.84375 -38.28125 L 44.5 -38.28125 C 43.59375 -48.53125 36.421875 -54.296875 24.609375 -54.296875 C 12.34375 -54.296875 5.6875 -48.15625 5.6875 -39.1875 C 5.6875 -30.734375 11.96875 -27.140625 20.640625 -25.34375 L 28.125 -23.78125 C 36.421875 -22.0625 39.40625 -19.296875 39.40625 -14.28125 C 39.40625 -8.296875 34.921875 -4.5625 25.796875 -4.5625 C 16.59375 -4.5625 11.21875 -8.375 10.46875 -17.203125 L 3.8125 -17.203125 C 4.71875 -4.9375 12.265625 1.125 25.578125 1.125 Z M 25.578125 1.125 "/></g></g></g><g fill="#000000" fill-opacity="1"><g transform="translate(142.518223, 48.42779)"><g><path d="M 9.421875 0.4375 C 14.21875 0.4375 16.8125 -2.109375 16.8125 -6.984375 L 16.8125 -25.90625 L 13.421875 -25.90625 L 13.421875 -7.09375 C 13.421875 -4.109375 12.109375 -2.578125 9.453125 -2.578125 C 6.578125 -2.578125 5.203125 -4.109375 5.203125 -7.09375 L 5.203125 -8.84375 L 1.8125 -8.84375 L 1.8125 -6.90625 C 1.8125 -2.296875 4.625 0.4375 9.421875 0.4375 Z M 9.421875 0.4375 "/></g></g></g><g fill="#000000" fill-opacity="1"><g transform="translate(162.414706, 48.42779)"><g><path d="M 19.453125 -2.46875 C 18.21875 -2.46875 17.828125 -2.875 17.828125 -4.109375 L 17.828125 -13.28125 C 17.828125 -17.390625 15.125 -19.28125 10.46875 -19.28125 C 5.640625 -19.28125 2.984375 -17.3125 2.65625 -13.171875 L 5.96875 -13.171875 C 6.1875 -15.671875 7.53125 -16.515625 10.21875 -16.515625 C 13.125 -16.515625 14.4375 -15.5625 14.4375 -13.609375 L 14.4375 -12.875 C 14.4375 -12 14 -11.5625 13.09375 -11.453125 L 8.296875 -10.84375 C 3.75 -10.25 1.890625 -8.078125 1.890625 -4.984375 C 1.890625 -1.53125 4.359375 0.46875 8.1875 0.46875 C 11.390625 0.46875 13.78125 -0.953125 14.984375 -2.765625 C 15.125 -0.90625 16.21875 0 18.21875 0 L 20 0 L 20 -2.46875 Z M 8.796875 -2.109375 C 6.625 -2.109375 5.203125 -3.203125 5.203125 -5.125 C 5.203125 -6.796875 6.21875 -7.96875 8.84375 -8.359375 L 14.4375 -9.203125 L 14.4375 -6.578125 C 14.4375 -4.1875 11.828125 -2.109375 8.796875 -2.109375 Z M 8.796875 -2.109375 "/></g></g></g><g fill="#000000" fill-opacity="1"><g transform="translate(183.147786, 48.42779)"><g><path d="M 22.84375 -19.25 C 20.109375 -19.25 18.109375 -18.15625 16.875 -15.96875 C 16.046875 -18.109375 14.21875 -19.25 11.671875 -19.25 C 9.09375 -19.25 7.28125 -18.109375 6.03125 -16.109375 L 6.03125 -18.765625 L 2.90625 -18.765625 L 2.90625 0 L 6.25 0 L 6.25 -10 C 6.25 -14.84375 8.65625 -16.328125 10.84375 -16.328125 C 12.90625 -16.328125 14.078125 -15.015625 14.078125 -12.84375 L 14.078125 0 L 17.421875 0 L 17.421875 -10.1875 C 17.421875 -15.015625 19.828125 -16.328125 22 -16.328125 C 24.078125 -16.328125 25.25 -15.015625 25.25 -12.84375 L 25.25 0 L 28.59375 0 L 28.59375 -12.875 C 28.59375 -17.234375 26.515625 -19.25 22.84375 -19.25 Z M 22.84375 -19.25 "/></g></g></g><g fill="#000000" fill-opacity="1"><g transform="translate(214.647524, 48.42779)"><g><path d="M 19.25 -9.828125 C 19.25 -15.671875 15.9375 -19.203125 10.65625 -19.203125 C 5.0625 -19.203125 1.8125 -15.203125 1.8125 -9.453125 C 1.8125 -3.671875 5.125 0.4375 10.734375 0.4375 C 14.734375 0.4375 17.78125 -1.671875 18.984375 -5.34375 L 15.9375 -5.703125 C 15.0625 -3.53125 13.453125 -2.296875 10.84375 -2.296875 C 7.453125 -2.296875 5.28125 -4.359375 5.171875 -8.578125 L 19.25 -8.578125 Z M 10.6875 -16.484375 C 13.75 -16.484375 15.671875 -14.546875 16.109375 -10.984375 L 5.203125 -10.984375 C 5.53125 -14.65625 7.71875 -16.484375 10.6875 -16.484375 Z M 10.6875 -16.484375 "/></g></g></g><g fill="#000000" fill-opacity="1"><g transform="translate(235.707973, 48.42779)"><g><path d="M 9.234375 0.46875 C 14.1875 0.46875 17.09375 -1.78125 17.09375 -5.453125 C 17.09375 -8.1875 15.453125 -9.890625 11.5625 -10.765625 L 7.9375 -11.5625 C 5.703125 -12.046875 5.015625 -12.875 5.015625 -14.078125 C 5.015625 -15.75 6.4375 -16.546875 8.796875 -16.546875 C 11.453125 -16.546875 12.875 -15.453125 13.234375 -13.3125 L 16.546875 -13.453125 C 16 -17.390625 13.09375 -19.203125 8.90625 -19.203125 C 4.296875 -19.203125 1.921875 -17.0625 1.921875 -13.78125 C 1.921875 -11.125 3.484375 -9.453125 7.125 -8.6875 L 10.90625 -7.890625 C 12.875 -7.5 13.890625 -6.65625 13.890625 -5.171875 C 13.890625 -3.390625 12.4375 -2.21875 9.390625 -2.21875 C 6.515625 -2.21875 4.953125 -3.3125 4.625 -5.921875 L 1.453125 -5.78125 C 1.890625 -1.59375 4.546875 0.46875 9.234375 0.46875 Z M 9.234375 0.46875 "/></g></g></g><g fill="#000000" fill-opacity="1"><g transform="translate(142.518223, 99.257298)"><g><path d="M 12.4375 0.546875 C 19.609375 0.546875 22.4375 -3.015625 22.4375 -7.125 C 22.4375 -11.171875 19.828125 -13.453125 15.015625 -14.484375 L 10.46875 -15.453125 C 7.234375 -16.15625 5.96875 -17.3125 5.96875 -19.34375 C 5.96875 -22.078125 8.140625 -23.640625 11.859375 -23.640625 C 15.828125 -23.640625 18.109375 -21.890625 18.40625 -18.625 L 21.640625 -18.625 C 21.203125 -23.609375 17.71875 -26.40625 11.96875 -26.40625 C 6 -26.40625 2.765625 -23.421875 2.765625 -19.0625 C 2.765625 -14.953125 5.8125 -13.203125 10.046875 -12.328125 L 13.671875 -11.5625 C 17.71875 -10.734375 19.171875 -9.390625 19.171875 -6.953125 C 19.171875 -4.03125 16.984375 -2.21875 12.546875 -2.21875 C 8.078125 -2.21875 5.453125 -4.078125 5.09375 -8.359375 L 1.859375 -8.359375 C 2.296875 -2.40625 5.96875 0.546875 12.4375 0.546875 Z M 12.4375 0.546875 "/></g></g></g><g fill="#000000" fill-opacity="1"><g transform="translate(166.815941, 99.257298)"><g><path d="M 19.453125 -2.46875 C 18.21875 -2.46875 17.828125 -2.875 17.828125 -4.109375 L 17.828125 -13.28125 C 17.828125 -17.390625 15.125 -19.28125 10.46875 -19.28125 C 5.640625 -19.28125 2.984375 -17.3125 2.65625 -13.171875 L 5.96875 -13.171875 C 6.1875 -15.671875 7.53125 -16.515625 10.21875 -16.515625 C 13.125 -16.515625 14.4375 -15.5625 14.4375 -13.609375 L 14.4375 -12.875 C 14.4375 -12 14 -11.5625 13.09375 -11.453125 L 8.296875 -10.84375 C 3.75 -10.25 1.890625 -8.078125 1.890625 -4.984375 C 1.890625 -1.53125 4.359375 0.46875 8.1875 0.46875 C 11.390625 0.46875 13.78125 -0.953125 14.984375 -2.765625 C 15.125 -0.90625 16.21875 0 18.21875 0 L 20 0 L 20 -2.46875 Z M 8.796875 -2.109375 C 6.625 -2.109375 5.203125 -3.203125 5.203125 -5.125 C 5.203125 -6.796875 6.21875 -7.96875 8.84375 -8.359375 L 14.4375 -9.203125 L 14.4375 -6.578125 C 14.4375 -4.1875 11.828125 -2.109375 8.796875 -2.109375 Z M 8.796875 -2.109375 "/></g></g></g><g fill="#000000" fill-opacity="1"><g transform="translate(187.549021, 99.257298)"><g><path d="M 10.515625 0.46875 C 15.234375 0.46875 17.96875 -2.140625 18.625 -6.546875 L 15.5 -6.546875 C 14.984375 -3.890625 13.453125 -2.328125 10.6875 -2.328125 C 7.125 -2.328125 5.171875 -4.953125 5.171875 -9.390625 C 5.171875 -13.828125 6.953125 -16.4375 10.734375 -16.4375 C 13.34375 -16.4375 14.953125 -15.171875 15.453125 -12.625 L 18.625 -12.625 C 17.96875 -16.953125 15.015625 -19.25 10.6875 -19.25 C 5.28125 -19.25 1.8125 -15.5625 1.8125 -9.234375 C 1.8125 -2.90625 5.28125 0.46875 10.515625 0.46875 Z M 10.515625 0.46875 "/></g></g></g><g fill="#000000" fill-opacity="1"><g transform="translate(207.809243, 99.257298)"><g><path d="M 11.828125 -19.28125 C 8.984375 -19.28125 7.171875 -17.671875 6.03125 -15.171875 L 6.03125 -18.765625 L 2.90625 -18.765625 L 2.90625 0 L 6.25 0 L 6.25 -10.25 C 6.40625 -14.078125 9.171875 -16 11.640625 -16 C 11.96875 -16 12.328125 -16 12.84375 -15.96875 L 12.84375 -19.203125 C 12.515625 -19.25 12.1875 -19.28125 11.828125 -19.28125 Z M 11.828125 -19.28125 "/></g></g></g><g fill="#000000" fill-opacity="1"><g transform="translate(221.194814, 99.257298)"><g><path d="M 19.453125 -2.46875 C 18.21875 -2.46875 17.828125 -2.875 17.828125 -4.109375 L 17.828125 -13.28125 C 17.828125 -17.390625 15.125 -19.28125 10.46875 -19.28125 C 5.640625 -19.28125 2.984375 -17.3125 2.65625 -13.171875 L 5.96875 -13.171875 C 6.1875 -15.671875 7.53125 -16.515625 10.21875 -16.515625 C 13.125 -16.515625 14.4375 -15.5625 14.4375 -13.609375 L 14.4375 -12.875 C 14.4375 -12 14 -11.5625 13.09375 -11.453125 L 8.296875 -10.84375 C 3.75 -10.25 1.890625 -8.078125 1.890625 -4.984375 C 1.890625 -1.53125 4.359375 0.46875 8.1875 0.46875 C 11.390625 0.46875 13.78125 -0.953125 14.984375 -2.765625 C 15.125 -0.90625 16.21875 0 18.21875 0 L 20 0 L 20 -2.46875 Z M 8.796875 -2.109375 C 6.625 -2.109375 5.203125 -3.203125 5.203125 -5.125 C 5.203125 -6.796875 6.21875 -7.96875 8.84375 -8.359375 L 14.4375 -9.203125 L 14.4375 -6.578125 C 14.4375 -4.1875 11.828125 -2.109375 8.796875 -2.109375 Z M 8.796875 -2.109375 "/></g></g></g><g fill="#000000" fill-opacity="1"><g transform="translate(241.927895, 99.257298)"><g><path d="M 22.84375 -19.25 C 20.109375 -19.25 18.109375 -18.15625 16.875 -15.96875 C 16.046875 -18.109375 14.21875 -19.25 11.671875 -19.25 C 9.09375 -19.25 7.28125 -18.109375 6.03125 -16.109375 L 6.03125 -18.765625 L 2.90625 -18.765625 L 2.90625 0 L 6.25 0 L 6.25 -10 C 6.25 -14.84375 8.65625 -16.328125 10.84375 -16.328125 C 12.90625 -16.328125 14.078125 -15.015625 14.078125 -12.84375 L 14.078125 0 L 17.421875 0 L 17.421875 -10.1875 C 17.421875 -15.015625 19.828125 -16.328125 22 -16.328125 C 24.078125 -16.328125 25.25 -15.015625 25.25 -12.84375 L 25.25 0 L 28.59375 0 L 28.59375 -12.875 C 28.59375 -17.234375 26.515625 -19.25 22.84375 -19.25 Z M 22.84375 -19.25 "/></g></g></g><g fill="#000000" fill-opacity="1"><g transform="translate(273.427627, 99.257298)"><g><path d="M 19.25 -9.828125 C 19.25 -15.671875 15.9375 -19.203125 10.65625 -19.203125 C 5.0625 -19.203125 1.8125 -15.203125 1.8125 -9.453125 C 1.8125 -3.671875 5.125 0.4375 10.734375 0.4375 C 14.734375 0.4375 17.78125 -1.671875 18.984375 -5.34375 L 15.9375 -5.703125 C 15.0625 -3.53125 13.453125 -2.296875 10.84375 -2.296875 C 7.453125 -2.296875 5.28125 -4.359375 5.171875 -8.578125 L 19.25 -8.578125 Z M 10.6875 -16.484375 C 13.75 -16.484375 15.671875 -14.546875 16.109375 -10.984375 L 5.203125 -10.984375 C 5.53125 -14.65625 7.71875 -16.484375 10.6875 -16.484375 Z M 10.6875 -16.484375 "/></g></g></g><g fill="#000000" fill-opacity="1"><g transform="translate(294.488066, 99.257298)"><g><path d="M 12.328125 -19.25 C 9.5625 -19.25 7.3125 -18.109375 6.03125 -16.109375 L 6.03125 -18.765625 L 2.90625 -18.765625 L 2.90625 0 L 6.25 0 L 6.25 -10.4375 C 6.25 -14.90625 9.015625 -16.328125 11.609375 -16.328125 C 14.15625 -16.328125 15.34375 -14.953125 15.34375 -12.375 L 15.34375 0 L 18.703125 0 L 18.703125 -13.015625 C 18.703125 -16.984375 16.265625 -19.25 12.328125 -19.25 Z M 12.328125 -19.25 "/></g></g></g><g fill="#000000" fill-opacity="1"><g transform="translate(316.09412, 99.257298)"><g><path d="M 11.890625 -16.1875 L 11.890625 -18.765625 L 7.609375 -18.625 L 7.609375 -24.515625 L 4.25 -24.515625 L 4.25 -18.65625 L 1.453125 -18.765625 L 1.453125 -16.1875 L 4.25 -16.328125 L 4.25 -4.1875 C 4.25 -1.265625 5.53125 0 8.4375 0 L 11.859375 0 L 11.859375 -2.796875 L 9.421875 -2.796875 C 8.03125 -2.796875 7.609375 -3.234375 7.609375 -4.625 L 7.609375 -16.328125 Z M 11.890625 -16.1875 "/></g></g></g><g fill="#000000" fill-opacity="1"><g transform="translate(329.079577, 99.257298)"><g><path d="M 10.84375 0.46875 C 16.109375 0.46875 19.890625 -3.640625 19.890625 -9.53125 C 19.890625 -15.5 16.1875 -19.25 10.953125 -19.25 C 5.5625 -19.25 1.8125 -15.421875 1.8125 -9.390625 C 1.8125 -3.484375 5.453125 0.46875 10.84375 0.46875 Z M 10.84375 -2.328125 C 7.3125 -2.328125 5.171875 -5.125 5.171875 -9.390625 C 5.171875 -13.640625 7.28125 -16.4375 10.84375 -16.4375 C 14.484375 -16.4375 16.546875 -13.78125 16.546875 -9.53125 C 16.546875 -5.28125 14.484375 -2.328125 10.84375 -2.328125 Z M 10.84375 -2.328125 "/></g></g></g></svg>